<?xml version="1.0" encoding="UTF-8" standalone="no"?>
<!-- Created with Inkscape (http://www.inkscape.org/) -->

<svg
   version="1.1"
   id="svg48"
   width="546.1333"
   height="546.1333"
   viewBox="0 0 546.1333 546.1333"
   xmlns="http://www.w3.org/2000/svg"
   xmlns:svg="http://www.w3.org/2000/svg">
  <defs
     id="defs52" />
  <g
     id="g54">
    <path
       style="fill:#060606;stroke-width:1.06667"
       d="M 253.33332,545.50754 C 211.11887,541.31106 181.59708,532.86406 147.56193,515.24341 89.671691,485.27255 43.467329,434.2455 19.306787,373.60135 11.262001,353.40854 6.2073013,334.39083 2.5085547,310.39998 c -2.65100876,-17.19501 -2.65100876,-57.47165 0,-74.66666 C 12.203797,172.84794 38.974987,120.3746 83.330522,77.316808 125.49846,36.382619 175.63069,11.774769 235.73332,2.5085547 c 17.19501,-2.65100876 57.47165,-2.65100876 74.66666,0 62.88538,9.6952423 115.35872,36.4664323 158.41651,80.8219673 35.36513,36.431028 60.29157,82.376578 70.81862,130.536128 4.72752,21.6276 5.88082,33.23751 5.88082,59.2 0,25.96249 -1.1533,37.5724 -5.88082,59.2 -16.92966,77.45043 -69.86737,146.11706 -141.06374,182.97676 -28.55388,14.78289 -54.74287,23.25755 -87.10472,28.18678 -10.66804,1.6249 -48.93052,2.99219 -58.13333,2.07735 z m 44.8,-43.13112 c 32.68525,-3.6523 68.97611,-16.18925 96.31203,-33.27173 28.45604,-17.78246 56.91736,-46.27486 74.79938,-74.88107 12.22243,-19.55249 24.02068,-48.50698 28.96791,-71.09122 6.9829,-31.87706 6.9829,-68.25444 0,-100.1315 -4.94723,-22.58424 -16.74548,-51.53873 -28.96791,-71.09122 C 451.30451,123.21035 422.92295,94.828794 394.22362,76.888576 367.04431,59.898537 330.82366,47.409751 298.13332,43.756885 275.89807,41.272288 245.71478,42.945018 223.0009,47.920654 200.503,52.848982 171.31858,64.761243 151.68795,77.028611 123.23191,94.811064 94.770586,123.30347 76.888576,151.90968 64.666138,171.46217 52.867894,200.41666 47.920654,223.0009 c -6.982894,31.87706 -6.982894,68.25444 0,100.1315 4.94724,22.58424 16.745484,51.53873 28.967922,71.09122 17.88201,28.60621 46.343334,57.09861 74.799374,74.88107 26.49317,16.55584 60.49649,28.5999 92.5787,32.79162 12.62765,1.64988 41.12506,1.90387 53.86667,0.48011 z m 71.99999,-166.46141 c -3.59923,-1.62825 -16.34077,-13.6898 -50.93348,-48.21535 l -46.13349,-46.0439 -46.6665,46.51062 c -50.59158,50.42257 -49.78838,49.77517 -60.22023,48.53967 -6.81772,-0.80747 -11.96129,-4.06075 -15.17627,-9.5989 -3.40314,-5.86228 -4.2509,-11.05816 -2.74176,-16.80399 1.11264,-4.23623 6.75886,-10.23623 56.8702,-60.43362 30.59921,-30.65174 57.15496,-56.45174 59.01277,-57.33333 4.24177,-2.01285 13.2485,-2.06989 17.75636,-0.11244 1.96443,0.85301 27.45915,25.60155 59.61136,57.86667 61.20335,61.41824 59.62003,59.5073 58.03925,70.04867 -1.43976,9.60097 -10.8894,17.82398 -20.42164,17.77078 -2.30812,-0.0129 -6.35657,-1.00059 -8.99657,-2.19488 z"
       id="path369" />
  </g>
</svg>
