<svg xmlns="http://www.w3.org/2000/svg" viewBox="0 0 75 32"><path d="M.936.732V31.25H3.13v.732H.095V0h3.034v.732zm8.45 9.675v1.544h.044a4.46 4.46 0 0 1 1.487-1.368q.87-.485 1.993-.485 1.08 0 1.972.42.893.418 1.355 1.477.506-.75 1.377-1.323.87-.574 2.06-.574.903 0 1.674.22.77.221 1.322.707.55.485.859 1.268.308.782.308 1.887v7.633H20.71v-6.464q0-.574-.044-1.082a2.3 2.3 0 0 0-.242-.882 1.47 1.47 0 0 0-.584-.596q-.386-.22-1.047-.22t-1.068.253-.639.662a2.7 2.7 0 0 0-.308.927 7 7 0 0 0-.078 1.048v6.354h-3.128v-6.398q0-.507-.021-1.004a2.8 2.8 0 0 0-.188-.916 1.4 1.4 0 0 0-.55-.673q-.387-.252-1.135-.253a2.3 2.3 0 0 0-.584.1 1.9 1.9 0 0 0-.705.374q-.341.276-.584.794-.242.519-.242 1.357v6.619H6.434V10.407zm16.456 1.677a3.75 3.75 0 0 1 1.233-1.17 5.4 5.4 0 0 1 1.685-.629 9.6 9.6 0 0 1 1.884-.187q.86 0 1.74.121.882.122 1.609.475.726.352 1.19.981.462.63.462 1.666v5.934q0 .774.088 1.478.087.706.308 1.06H32.87a4.4 4.4 0 0 1-.22-1.104q-.75.773-1.762 1.081a7 7 0 0 1-2.071.31q-.816 0-1.52-.2a3.5 3.5 0 0 1-1.234-.617 2.9 2.9 0 0 1-.826-1.059q-.298-.64-.298-1.522 0-.97.342-1.6.34-.628.881-1.004.54-.375 1.234-.562t1.399-.298 1.387-.176q.684-.066 1.212-.199.529-.132.837-.386.309-.253.287-.74 0-.506-.166-.804a1.2 1.2 0 0 0-.44-.464 1.7 1.7 0 0 0-.639-.22 5 5 0 0 0-.782-.055q-.925 0-1.454.397t-.617 1.323h-3.128q.066-1.103.55-1.83m6.179 4.423a5 5 0 0 1-.639.165 10 10 0 0 1-.716.11q-.375.045-.749.11a6 6 0 0 0-.694.177 2 2 0 0 0-.594.298q-.254.188-.408.474-.154.288-.154.728 0 .42.154.706.154.287.419.453.264.165.617.231.352.066.726.066.925 0 1.432-.309.506-.308.75-.739.24-.429.297-.87.055-.442.055-.707v-1.17a1.4 1.4 0 0 1-.496.277m11.863-6.1v2.096h-2.291v5.647q0 .795.264 1.059.265.265 1.057.265.265 0 .507-.022.242-.023.463-.066v2.426a8 8 0 0 1-.882.089 22 22 0 0 1-.947.022q-.727 0-1.377-.1a3.2 3.2 0 0 1-1.145-.386 2.04 2.04 0 0 1-.782-.816q-.287-.53-.287-1.39v-6.728H36.57v-2.096h1.894v-3.42h3.129v3.42zm4.471 0v2.118h.044a3.9 3.9 0 0 1 1.454-1.754 4.2 4.2 0 0 1 1.036-.497 3.7 3.7 0 0 1 1.145-.176q.309 0 .683.11v2.912a6 6 0 0 0-.528-.077 6 6 0 0 0-.595-.033q-.86 0-1.454.287a2.5 2.5 0 0 0-.958.783 3.1 3.1 0 0 0-.518 1.158 6.3 6.3 0 0 0-.154 1.434v5.14h-3.128V10.407zm5.684-1.765V6.06h3.128v2.582zm3.128 1.765v11.405H54.04V10.407zm1.63 0h3.569l2.005 2.978 1.982-2.978h3.459l-3.745 5.339 4.208 6.067h-3.57l-2.378-3.596-2.38 3.596h-3.502l4.097-6.001zM74.094 31.25V.732H71.9V0h3.035v31.982H71.9v-.732z"/></svg>